<?xml version="1.0" encoding="UTF-8" standalone="no"?>
<!-- Created with Inkscape (http://www.inkscape.org/) -->

<svg
   width="128"
   height="128"
   viewBox="0 0 128 128"
   version="1.1"
   id="svg5"
   inkscape:version="1.2.2 (b0a8486541, 2022-12-01)"
   sodipodi:docname="social_ru.svg"
   inkscape:export-filename="./render/social_ru.png"
   inkscape:export-xdpi="384"
   inkscape:export-ydpi="384"
   xmlns:inkscape="http://www.inkscape.org/namespaces/inkscape"
   xmlns:sodipodi="http://sodipodi.sourceforge.net/DTD/sodipodi-0.dtd"
   xmlns="http://www.w3.org/2000/svg"
   xmlns:svg="http://www.w3.org/2000/svg">
  <sodipodi:namedview
     id="namedview7"
     pagecolor="#ffffff"
     bordercolor="#666666"
     borderopacity="1.0"
     inkscape:showpageshadow="2"
     inkscape:pageopacity="0"
     inkscape:pagecheckerboard="0"
     inkscape:deskcolor="#d1d1d1"
     inkscape:document-units="px"
     showgrid="true"
     inkscape:zoom="6.3515625"
     inkscape:cx="63.921279"
     inkscape:cy="64.157442"
     inkscape:window-width="1850"
     inkscape:window-height="1016"
     inkscape:window-x="70"
     inkscape:window-y="27"
     inkscape:window-maximized="1"
     inkscape:current-layer="layer1"
     inkscape:pageshadow="0" />
  <defs
     id="defs2" />
  <g
     inkscape:label="Слой 1"
     inkscape:groupmode="layer"
     id="layer1">
    <rect
       style="fill:#2980b9;stroke:none;stroke-width:2.08716;stroke-linecap:round;stroke-dasharray:0.208716, 0.208716"
       id="rect352"
       width="128"
       height="128"
       x="0"
       y="0" />
    <path
       id="path2117"
       style="fill:#ecf0f1;fill-opacity:1;stroke:none;stroke-width:2.52015;stroke-linecap:butt;stroke-linejoin:miter;stroke-opacity:1"
       d="m 22.009774,31.959769 c 1.708812,3.417624 3.417625,6.83525 5.126436,10.252875 3.215699,0 6.431398,0 9.647112,0 1.708812,-3.417625 3.417623,-6.835251 5.126436,-10.252875 -1.708813,-3.417626 -3.417624,-6.835249 -5.126436,-10.252876 -3.215714,0 -6.431413,0 -9.647112,0 -1.708811,3.417627 -3.417624,6.83525 -5.126436,10.252876 z" />
    <path
       id="path2119"
       style="fill:#ecf0f1;fill-opacity:1;stroke:none;stroke-width:2.52015;stroke-linecap:butt;stroke-linejoin:miter;stroke-opacity:1"
       d="m 22.009774,57.591956 c 1.708812,3.417625 3.417625,6.83525 5.126436,10.252874 3.215699,0 6.431398,0 9.647112,0 1.708812,-3.417624 3.417623,-6.835249 5.126436,-10.252874 -1.708813,-3.417625 -3.417624,-6.835249 -5.126436,-10.252876 -3.215714,0 -6.431413,0 -9.647112,0 -1.708811,3.417627 -3.417624,6.835251 -5.126436,10.252876 z" />
    <path
       id="path2121"
       style="fill:#ecf0f1;fill-opacity:1;stroke:none;stroke-width:2.52015;stroke-linecap:butt;stroke-linejoin:miter;stroke-opacity:1"
       d="m 22.009774,83.224143 c 1.708812,3.417627 3.417625,6.83525 5.126436,10.252879 3.215699,0 6.431398,0 9.647112,0 1.708812,-3.417629 3.417623,-6.835252 5.126436,-10.252879 -1.708813,-3.417623 -3.417624,-6.835247 -5.126436,-10.252873 -3.215714,0 -6.431413,0 -9.647112,0 -1.708811,3.417625 -3.417624,6.83525 -5.126436,10.252873 z" />
    <path
       id="path2123"
       style="fill:#ecf0f1;fill-opacity:1;stroke:none;stroke-width:2.52015;stroke-linecap:butt;stroke-linejoin:miter;stroke-opacity:1"
       d="m 86.090238,44.775861 c 1.708814,3.417627 3.417625,6.835253 5.126437,10.252876 3.215701,0 6.431408,0 9.647115,0 1.70881,-3.417623 3.41763,-6.835249 5.12644,-10.252876 -1.70881,-3.417624 -3.41763,-6.835249 -5.12644,-10.252874 -3.215707,0 -6.431414,0 -9.647115,0 -1.708813,3.417625 -3.417624,6.835251 -5.126437,10.252874 z" />
    <path
       id="path2125"
       style="fill:#ecf0f1;fill-opacity:1;stroke:none;stroke-width:2.52015;stroke-linecap:butt;stroke-linejoin:miter;stroke-opacity:1"
       d="m 86.090238,70.408051 c 1.708814,3.417625 3.417625,6.83525 5.126437,10.252874 3.215701,0 6.431408,0 9.647115,0 1.70881,-3.417624 3.41763,-6.835249 5.12644,-10.252874 -1.70881,-3.417626 -3.41763,-6.835252 -5.12644,-10.252877 -3.215707,0 -6.431414,0 -9.647115,0 -1.708813,3.417625 -3.417624,6.835251 -5.126437,10.252877 z" />
    <path
       id="path2127"
       style="fill:#ecf0f1;fill-opacity:1;stroke:none;stroke-width:2.52015;stroke-linecap:butt;stroke-linejoin:miter;stroke-opacity:1"
       d="m 86.090238,96.040233 c 1.708814,3.417624 3.417625,6.835247 5.126437,10.252877 3.215701,0 6.431408,0 9.647115,0 1.70881,-3.41763 3.41763,-6.835253 5.12644,-10.252877 -1.70881,-3.417625 -3.41763,-6.835247 -5.12644,-10.252871 -3.215707,0 -6.431414,0 -9.647115,0 -1.708813,3.417624 -3.417624,6.835246 -5.126437,10.252871 z" />
    <path
       id="path2129"
       style="fill:#ecf0f1;fill-opacity:1;stroke:none;stroke-width:2.52015;stroke-linecap:butt;stroke-linejoin:miter;stroke-opacity:1"
       d="m 41.233907,44.775861 c 1.61369,3.227388 3.227382,6.454773 4.841085,9.682159 9.682155,-3.227386 19.364309,-6.454771 29.046478,-9.682159 -9.682169,-3.227385 -19.364323,-6.454771 -29.046477,-9.682157 -1.613704,3.227386 -3.227395,6.454772 -4.841086,9.682157 z" />
    <path
       id="path2131"
       style="fill:#ecf0f1;fill-opacity:1;stroke:none;stroke-width:2.52015;stroke-linecap:butt;stroke-linejoin:miter;stroke-opacity:1"
       d="m 52.878529,57.591956 c 9.682153,3.227385 19.364322,6.454772 29.046475,9.682159 1.613692,-3.227387 3.22738,-6.454774 4.841086,-9.682159 -1.613705,-3.227386 -3.227394,-6.454772 -4.841085,-9.682158 -9.682153,3.227386 -19.364322,6.454772 -29.046476,9.682158 z" />
    <path
       id="path2133"
       style="fill:#ecf0f1;fill-opacity:1;stroke:none;stroke-width:2.52015;stroke-linecap:butt;stroke-linejoin:miter;stroke-opacity:1"
       d="m 41.233907,70.408051 c 1.61369,3.227384 3.227382,6.45477 4.841085,9.682158 9.682155,-3.227388 19.364309,-6.454774 29.046478,-9.682158 -9.682169,-3.227388 -19.364323,-6.454773 -29.046477,-9.682161 -1.613704,3.227388 -3.227395,6.454774 -4.841086,9.682161 z" />
    <path
       id="path2135"
       style="fill:#ecf0f1;fill-opacity:1;stroke:none;stroke-width:2.52015;stroke-linecap:butt;stroke-linejoin:miter;stroke-opacity:1"
       d="m 52.878529,31.959769 c 9.682153,3.227385 19.364322,6.454772 29.046475,9.682158 1.613692,-3.227386 3.22738,-6.454773 4.841086,-9.682158 -1.613705,-3.227388 -3.227394,-6.454773 -4.841085,-9.682159 -9.682153,3.227386 -19.364322,6.454771 -29.046476,9.682159 z" />
    <path
       id="path2137"
       style="fill:#ecf0f1;fill-opacity:1;stroke:none;stroke-width:2.52015;stroke-linecap:butt;stroke-linejoin:miter;stroke-opacity:1"
       d="m 52.878529,83.224143 c 9.682153,3.227387 19.364322,6.454773 29.046475,9.68216 1.613692,-3.227387 3.22738,-6.454773 4.841086,-9.68216 -1.613705,-3.227386 -3.227394,-6.45477 -4.841085,-9.682158 -9.682153,3.227388 -19.364322,6.454772 -29.046476,9.682158 z" />
    <path
       id="path2139"
       style="fill:#ecf0f1;fill-opacity:1;stroke:none;stroke-width:2.52015;stroke-linecap:butt;stroke-linejoin:miter;stroke-opacity:1"
       d="m 41.233907,96.040233 c 1.61369,3.227395 3.227382,6.454777 4.841085,9.682177 9.682155,-3.2274 19.364309,-6.454782 29.046478,-9.682177 -9.682169,-3.227381 -19.364323,-6.454768 -29.046477,-9.682153 -1.613704,3.227385 -3.227395,6.454772 -4.841086,9.682153 z" />
    <path
       id="path2141"
       style="fill:#ecf0f1;fill-opacity:1;stroke:none;stroke-width:2.52015;stroke-linecap:butt;stroke-linejoin:miter;stroke-opacity:1"
       d="m 91.216675,29.396549 c 3.215701,0 6.431408,0 9.647115,0 1.28161,-2.563219 2.56322,-5.126436 3.84482,-7.689656 -5.778907,0 -11.557835,0 -17.336759,0 1.281598,2.56322 2.563212,5.126437 3.844824,7.689656 z" />
    <path
       id="path2143"
       style="fill:#ecf0f1;fill-opacity:1;stroke:none;stroke-width:2.52015;stroke-linecap:butt;stroke-linejoin:miter;stroke-opacity:1"
       d="m 23.291374,106.29311 c 5.778923,0 11.557847,0 17.336772,0 -1.281613,-2.56323 -2.563212,-5.12644 -3.844823,-7.689653 -3.215714,0 -6.431413,0 -9.647112,0 -1.281611,2.563213 -2.563224,5.126423 -3.844837,7.689653 z" />
  </g>
</svg>
