<?xml version="1.0" encoding="UTF-8" standalone="no"?>
<!-- Created with Inkscape (http://www.inkscape.org/) -->

<svg
   width="64"
   height="64"
   viewBox="0 0 64 64"
   version="1.1"
   id="svg5"
   inkscape:version="1.1.2 (0a00cf5339, 2022-02-04)"
   sodipodi:docname="app_icon.svg"
   inkscape:export-filename="./app_icon.png"
   inkscape:export-xdpi="48"
   inkscape:export-ydpi="48"
   xmlns:inkscape="http://www.inkscape.org/namespaces/inkscape"
   xmlns:sodipodi="http://sodipodi.sourceforge.net/DTD/sodipodi-0.dtd"
   xmlns="http://www.w3.org/2000/svg"
   xmlns:svg="http://www.w3.org/2000/svg">
  <sodipodi:namedview
     id="namedview7"
     pagecolor="#000000"
     bordercolor="#666666"
     borderopacity="1.0"
     inkscape:showpageshadow="2"
     inkscape:pageopacity="0"
     inkscape:pagecheckerboard="0"
     inkscape:deskcolor="#d1d1d1"
     inkscape:document-units="px"
     showgrid="true"
     inkscape:zoom="5.1677721"
     inkscape:cx="38.50789"
     inkscape:cy="61.825482"
     inkscape:window-width="1850"
     inkscape:window-height="1016"
     inkscape:window-x="70"
     inkscape:window-y="27"
     inkscape:window-maximized="1"
     inkscape:current-layer="layer1"
     inkscape:pageshadow="0"
     width="64px" />
  <defs
     id="defs2" />
  <g
     inkscape:label="Слой 1"
     inkscape:groupmode="layer"
     id="layer1">
    <circle
       style="fill:#ecf0f1;stroke:none;stroke-width:2.53602;stroke-linecap:square"
       id="path5496"
       cx="32"
       cy="32"
       r="32" />
    <path
       id="path2117"
       style="fill:#2c3e50;fill-opacity:1;stroke:none;stroke-width:1.22571;stroke-linecap:butt;stroke-linejoin:miter;stroke-opacity:1"
       d="m 11.700355,16.245265 c 0.831105,1.66221 1.66221,3.324419 2.493315,4.986629 1.563999,0 3.128,0 4.692006,0 0.831105,-1.66221 1.66221,-3.324419 2.493315,-4.986629 -0.831105,-1.66221 -1.66221,-3.324419 -2.493315,-4.986629 -1.564006,0 -3.128007,0 -4.692006,0 -0.831105,1.66221 -1.66221,3.324419 -2.493315,4.986629 z" />
    <path
       id="path2119"
       style="fill:#2c3e50;fill-opacity:1;stroke:none;stroke-width:1.22571;stroke-linecap:butt;stroke-linejoin:miter;stroke-opacity:1"
       d="m 11.700355,28.711838 c 0.831105,1.66221 1.66221,3.324418 2.493315,4.986628 1.563999,0 3.128,0 4.692006,0 0.831105,-1.66221 1.66221,-3.324418 2.493315,-4.986628 -0.831105,-1.66221 -1.66221,-3.324419 -2.493315,-4.98663 -1.564006,0 -3.128007,0 -4.692006,0 -0.831105,1.662211 -1.66221,3.32442 -2.493315,4.98663 z" />
    <path
       id="path2121"
       style="fill:#2c3e50;fill-opacity:1;stroke:none;stroke-width:1.22571;stroke-linecap:butt;stroke-linejoin:miter;stroke-opacity:1"
       d="m 11.700355,41.17841 c 0.831105,1.66221 1.66221,3.324419 2.493315,4.98663 1.563999,0 3.128,0 4.692006,0 0.831105,-1.662211 1.66221,-3.32442 2.493315,-4.98663 -0.831105,-1.66221 -1.66221,-3.324419 -2.493315,-4.986629 -1.564006,0 -3.128007,0 -4.692006,0 -0.831105,1.66221 -1.66221,3.324419 -2.493315,4.986629 z" />
    <path
       id="path2123"
       style="fill:#2c3e50;fill-opacity:1;stroke:none;stroke-width:1.22571;stroke-linecap:butt;stroke-linejoin:miter;stroke-opacity:1"
       d="m 42.866785,22.478551 c 0.831104,1.66221 1.662208,3.324421 2.493313,4.98663 1.564002,0 3.128006,0 4.69201,0 0.831105,-1.662209 1.662209,-3.32442 2.493314,-4.98663 -0.831105,-1.662209 -1.662209,-3.324419 -2.493314,-4.986629 -1.564004,0 -3.128008,0 -4.69201,0 -0.831105,1.66221 -1.662209,3.32442 -2.493313,4.986629 z" />
    <path
       id="path2125"
       style="fill:#2c3e50;fill-opacity:1;stroke:none;stroke-width:1.22571;stroke-linecap:butt;stroke-linejoin:miter;stroke-opacity:1"
       d="m 42.866785,34.945124 c 0.831104,1.66221 1.662208,3.32442 2.493313,4.986629 1.564002,0 3.128006,0 4.69201,0 0.831105,-1.662209 1.662209,-3.324419 2.493314,-4.986629 -0.831105,-1.662209 -1.662209,-3.32442 -2.493314,-4.98663 -1.564004,0 -3.128008,0 -4.69201,0 -0.831105,1.66221 -1.662209,3.324421 -2.493313,4.98663 z" />
    <path
       id="path2127"
       style="fill:#2c3e50;fill-opacity:1;stroke:none;stroke-width:1.22571;stroke-linecap:butt;stroke-linejoin:miter;stroke-opacity:1"
       d="m 42.866785,47.411694 c 0.831104,1.66221 1.662208,3.324419 2.493313,4.986628 1.564002,0 3.128006,0 4.69201,0 0.831105,-1.662209 1.662209,-3.324418 2.493314,-4.986628 -0.831105,-1.662209 -1.662209,-3.324418 -2.493314,-4.986627 -1.564004,0 -3.128008,0 -4.69201,0 -0.831105,1.662209 -1.662209,3.324418 -2.493313,4.986627 z" />
    <path
       id="path2129"
       style="fill:#2c3e50;fill-opacity:1;stroke:none;stroke-width:1.22571;stroke-linecap:butt;stroke-linejoin:miter;stroke-opacity:1"
       d="m 21.050281,22.478551 c 0.78484,1.569685 1.569682,3.139369 2.35453,4.709053 4.70905,-1.569684 9.418101,-3.139368 14.127159,-4.709053 -4.709058,-1.569684 -9.418109,-3.139368 -14.127159,-4.709052 -0.784848,1.569684 -1.56969,3.139368 -2.35453,4.709052 z" />
    <path
       id="path2131"
       style="fill:#2c3e50;fill-opacity:1;stroke:none;stroke-width:1.22571;stroke-linecap:butt;stroke-linejoin:miter;stroke-opacity:1"
       d="m 26.713806,28.711838 c 4.70905,1.569683 9.418108,3.139368 14.127159,4.709053 0.784841,-1.569685 1.569681,-3.13937 2.354529,-4.709053 -0.784848,-1.569684 -1.569688,-3.139369 -2.354529,-4.709054 -4.709051,1.569685 -9.418109,3.13937 -14.127159,4.709054 z" />
    <path
       id="path2133"
       style="fill:#2c3e50;fill-opacity:1;stroke:none;stroke-width:1.22571;stroke-linecap:butt;stroke-linejoin:miter;stroke-opacity:1"
       d="m 21.050281,34.945124 c 0.78484,1.569684 1.569682,3.139368 2.35453,4.709053 4.70905,-1.569685 9.418101,-3.139369 14.127159,-4.709053 -4.709058,-1.569685 -9.418109,-3.139369 -14.127159,-4.709053 -0.784848,1.569684 -1.56969,3.139368 -2.35453,4.709053 z" />
    <path
       id="path2135"
       style="fill:#2c3e50;fill-opacity:1;stroke:none;stroke-width:1.22571;stroke-linecap:butt;stroke-linejoin:miter;stroke-opacity:1"
       d="m 26.713806,16.245265 c 4.70905,1.569684 9.418108,3.139369 14.127159,4.709054 0.784841,-1.569685 1.569681,-3.13937 2.354529,-4.709054 -0.784848,-1.569684 -1.569688,-3.139369 -2.354529,-4.709053 -4.709051,1.569684 -9.418109,3.139369 -14.127159,4.709053 z" />
    <path
       id="path2137"
       style="fill:#2c3e50;fill-opacity:1;stroke:none;stroke-width:1.22571;stroke-linecap:butt;stroke-linejoin:miter;stroke-opacity:1"
       d="m 26.713806,41.17841 c 4.70905,1.569684 9.418108,3.139368 14.127159,4.709054 0.784841,-1.569686 1.569681,-3.13937 2.354529,-4.709054 -0.784848,-1.569684 -1.569688,-3.139369 -2.354529,-4.709053 -4.709051,1.569684 -9.418109,3.139369 -14.127159,4.709053 z" />
    <path
       id="path2139"
       style="fill:#2c3e50;fill-opacity:1;stroke:none;stroke-width:1.22571;stroke-linecap:butt;stroke-linejoin:miter;stroke-opacity:1"
       d="m 21.050281,47.411694 c 0.78484,1.569689 1.569682,3.13937 2.35453,4.709058 4.70905,-1.569688 9.418101,-3.139369 14.127159,-4.709058 -4.709058,-1.569682 -9.418109,-3.139366 -14.127159,-4.70905 -0.784848,1.569684 -1.56969,3.139368 -2.35453,4.70905 z" />
    <path
       id="path2141"
       style="fill:#2c3e50;fill-opacity:1;stroke:none;stroke-width:1.22571;stroke-linecap:butt;stroke-linejoin:miter;stroke-opacity:1"
       d="m 45.360098,14.998608 c 1.564002,0 3.128006,0 4.69201,0 0.623328,-1.246658 1.246656,-2.493314 1.869979,-3.739972 -2.81065,0 -5.621311,0 -8.431972,0 0.623323,1.246658 1.246654,2.493314 1.869983,3.739972 z" />
    <path
       id="path2143"
       style="fill:#2c3e50;fill-opacity:1;stroke:none;stroke-width:1.22571;stroke-linecap:butt;stroke-linejoin:miter;stroke-opacity:1"
       d="m 12.323679,52.398322 c 2.81066,0 5.621321,0 8.431982,0 -0.62333,-1.24666 -1.246654,-2.493314 -1.869985,-3.739967 -1.564006,0 -3.128007,0 -4.692006,0 -0.62333,1.246653 -1.246661,2.493307 -1.869991,3.739967 z" />
  </g>
</svg>
