<?xml version="1.0" encoding="UTF-8" standalone="no"?>
<!-- Created with Inkscape (http://www.inkscape.org/) -->

<svg
   width="120"
   height="120"
   viewBox="0 0 120 120"
   version="1.1"
   id="svg5"
   inkscape:version="1.1.2 (0a00cf5339, 2022-02-04)"
   sodipodi:docname="pcrd.fishtail.svg"
   inkscape:export-filename="./pcrd.fishtail.png"
   inkscape:export-xdpi="153.60001"
   inkscape:export-ydpi="153.60001"
   xmlns:inkscape="http://www.inkscape.org/namespaces/inkscape"
   xmlns:sodipodi="http://sodipodi.sourceforge.net/DTD/sodipodi-0.dtd"
   xmlns="http://www.w3.org/2000/svg"
   xmlns:svg="http://www.w3.org/2000/svg">
  <sodipodi:namedview
     id="namedview7"
     pagecolor="#000000"
     bordercolor="#666666"
     borderopacity="1.0"
     inkscape:showpageshadow="2"
     inkscape:pageopacity="0"
     inkscape:pagecheckerboard="0"
     inkscape:deskcolor="#d1d1d1"
     inkscape:document-units="px"
     showgrid="true"
     inkscape:zoom="6.725"
     inkscape:cx="59.925651"
     inkscape:cy="60"
     inkscape:window-width="1850"
     inkscape:window-height="1016"
     inkscape:window-x="70"
     inkscape:window-y="27"
     inkscape:window-maximized="1"
     inkscape:current-layer="layer1"
     inkscape:pageshadow="0" />
  <defs
     id="defs2" />
  <g
     inkscape:label="Слой 1"
     inkscape:groupmode="layer"
     id="layer1">
    <path
       id="path4475"
       style="fill:#3498db;stroke:none;stroke-width:2;stroke-linecap:butt;stroke-linejoin:miter;stroke-opacity:1;fill-opacity:1"
       d="m 17.310221,20.523563 c 1.509578,3.019158 3.019157,6.038314 4.528736,9.057471 10.542725,0 21.085451,0 31.628176,0 3.019158,-3.019157 6.038314,-6.038313 9.057471,-9.057471 -3.019157,-3.019157 -6.038313,-6.038314 -9.057471,-9.057471 -10.542725,0 -21.085451,0 -31.628176,0 -1.509579,3.019157 -3.019158,6.038314 -4.528736,9.057471 z" />
    <path
       id="path4477"
       style="fill:#3498db;stroke:none;stroke-width:2;stroke-linecap:butt;stroke-linejoin:miter;stroke-opacity:1;fill-opacity:1"
       d="m 57.60668,31.845402 c 3.019158,3.019158 6.038314,6.038314 9.057472,9.057471 10.542725,0 21.085451,0 31.628176,0 1.509578,-3.019157 3.019162,-6.038313 4.528732,-9.057471 -1.50957,-3.019157 -3.019154,-6.038314 -4.528732,-9.057471 -10.542725,0 -21.085451,0 -31.628176,0 -3.019158,3.019157 -6.038314,6.038314 -9.057472,9.057471 z" />
    <path
       id="path4479"
       style="fill:#3498db;stroke:none;stroke-width:2;stroke-linecap:butt;stroke-linejoin:miter;stroke-opacity:1;fill-opacity:1"
       d="m 17.310221,43.167241 c 1.509578,3.019158 3.019157,6.038314 4.528736,9.057471 10.542725,0 21.085451,0 31.628176,0 3.019158,-3.019157 6.038314,-6.038313 9.057471,-9.057471 -3.019157,-3.019157 -6.038313,-6.038314 -9.057471,-9.057471 -10.542725,0 -21.085451,0 -31.628176,0 -1.509579,3.019157 -3.019158,6.038314 -4.528736,9.057471 z" />
    <path
       id="path4481"
       style="fill:#3498db;stroke:none;stroke-width:2;stroke-linecap:butt;stroke-linejoin:miter;stroke-opacity:1;fill-opacity:1"
       d="m 57.60668,54.48908 c 3.019158,3.019158 6.038314,6.038314 9.057472,9.057471 10.542725,0 21.085451,0 31.628176,0 1.509578,-3.019157 3.019162,-6.038313 4.528732,-9.057471 -1.50957,-3.019157 -3.019154,-6.038314 -4.528732,-9.057471 -10.542725,0 -21.085451,0 -31.628176,0 -3.019158,3.019157 -6.038314,6.038314 -9.057472,9.057471 z" />
    <path
       id="path4483"
       style="fill:#3498db;stroke:none;stroke-width:2;stroke-linecap:butt;stroke-linejoin:miter;stroke-opacity:1;fill-opacity:1"
       d="m 17.310221,65.810919 c 1.509578,3.019158 3.019157,6.038314 4.528736,9.057471 10.542725,0 21.085451,0 31.628176,0 3.019158,-3.019157 6.038314,-6.038313 9.057471,-9.057471 -3.019157,-3.019157 -6.038313,-6.038314 -9.057471,-9.057471 -10.542725,0 -21.085451,0 -31.628176,0 -1.509579,3.019157 -3.019158,6.038314 -4.528736,9.057471 z" />
    <path
       id="path4485"
       style="fill:#3498db;stroke:none;stroke-width:2;stroke-linecap:butt;stroke-linejoin:miter;stroke-opacity:1;fill-opacity:1"
       d="m 57.60668,77.132758 c 3.019158,3.019158 6.038314,6.038314 9.057472,9.057471 10.542725,0 21.085451,0 31.628176,0 1.509578,-3.019157 3.019162,-6.038313 4.528732,-9.057471 -1.50957,-3.019157 -3.019154,-6.038314 -4.528732,-9.057471 -10.542725,0 -21.085451,0 -31.628176,0 -3.019158,3.019157 -6.038314,6.038314 -9.057472,9.057471 z" />
    <path
       id="path4487"
       style="fill:#3498db;stroke:none;stroke-width:2;stroke-linecap:butt;stroke-linejoin:miter;stroke-opacity:1;fill-opacity:1"
       d="m 17.310221,88.454597 c 1.509578,3.019158 3.019157,6.038314 4.528736,9.057471 10.542725,0 21.085451,0 31.628176,0 3.019158,-3.019157 6.038314,-6.038313 9.057471,-9.057471 -3.019157,-3.019157 -6.038313,-6.038314 -9.057471,-9.057471 -10.542725,0 -21.085451,0 -31.628176,0 -1.509579,3.019157 -3.019158,6.038314 -4.528736,9.057471 z" />
    <path
       id="path4489"
       style="fill:#3498db;stroke:none;stroke-width:2;stroke-linecap:butt;stroke-linejoin:miter;stroke-opacity:1;fill-opacity:1"
       d="m 57.60668,99.776436 c 3.019158,3.019154 6.038314,6.038314 9.057472,9.057474 10.542725,0 21.085451,0 31.628176,0 1.509578,-3.01916 3.019162,-6.03832 4.528732,-9.057474 -1.50957,-3.019157 -3.019154,-6.038314 -4.528732,-9.057471 -10.542725,0 -21.085451,0 -31.628176,0 -3.019158,3.019157 -6.038314,6.038314 -9.057472,9.057471 z" />
  </g>
</svg>
