<?xml version="1.0" encoding="UTF-8" standalone="no"?>
<!-- Created with Inkscape (http://www.inkscape.org/) -->

<svg
   width="120"
   height="120"
   viewBox="0 0 120 120"
   version="1.1"
   id="svg5"
   inkscape:version="1.2.2 (b0a8486541, 2022-12-01)"
   sodipodi:docname="ic_sanctified_dark.svg"
   inkscape:export-filename="./pcrd.sanctified.png"
   inkscape:export-xdpi="153.60001"
   inkscape:export-ydpi="153.60001"
   xmlns:inkscape="http://www.inkscape.org/namespaces/inkscape"
   xmlns:sodipodi="http://sodipodi.sourceforge.net/DTD/sodipodi-0.dtd"
   xmlns="http://www.w3.org/2000/svg"
   xmlns:svg="http://www.w3.org/2000/svg">
  <sodipodi:namedview
     id="namedview7"
     pagecolor="#34495e"
     bordercolor="#666666"
     borderopacity="1.0"
     inkscape:showpageshadow="2"
     inkscape:pageopacity="0"
     inkscape:pagecheckerboard="0"
     inkscape:deskcolor="#d1d1d1"
     inkscape:document-units="px"
     showgrid="true"
     inkscape:zoom="6.725"
     inkscape:cx="44.609665"
     inkscape:cy="69.36803"
     inkscape:window-width="1850"
     inkscape:window-height="1016"
     inkscape:window-x="70"
     inkscape:window-y="27"
     inkscape:window-maximized="1"
     inkscape:current-layer="layer1"
     inkscape:pageshadow="0"
     showguides="true" />
  <defs
     id="defs2" />
  <g
     inkscape:label="Слой 1"
     inkscape:groupmode="layer"
     id="layer1">
    <path
       id="path5828"
       style="fill:#ecf0f1;stroke:#7f8c8d;stroke-width:1;stroke-linecap:butt;stroke-linejoin:miter;stroke-opacity:1;fill-opacity:1"
       d="m 14.416084,23.965016 c 1.610169,3.220338 3.220339,6.440676 4.830508,9.661015 3.194392,0 6.388787,0 9.58318,0 3.220338,-3.220339 6.440676,-6.440677 9.661015,-9.661015 -3.220339,-3.220339 -6.440677,-6.440677 -9.661015,-9.661016 -3.194393,0 -6.388788,0 -9.58318,0 -1.610169,3.220339 -3.220339,6.440677 -4.830508,9.661016 z" />
    <path
       id="path5836"
       style="fill:#ecf0f1;stroke:#7f8c8d;stroke-width:1;stroke-linecap:butt;stroke-linejoin:miter;stroke-opacity:1;fill-opacity:1"
       d="m 33.245157,36.041285 c 3.220339,3.220338 6.440677,6.440676 9.661016,9.661015 3.358712,0 6.717424,0 10.076137,0 1.540982,-1.540983 3.081964,-3.081964 4.622946,-4.622947 0,-3.358712 0,-6.717425 0,-10.076137 -1.540982,-1.540983 -3.081964,-3.081964 -4.622946,-4.622947 -3.358713,0 -6.717425,0 -10.076137,0 -3.220339,3.220339 -6.440677,6.440677 -9.661016,9.661016 z" />
    <path
       id="path5838"
       style="fill:#ecf0f1;stroke:#7f8c8d;stroke-width:1;stroke-linecap:butt;stroke-linejoin:miter;stroke-opacity:1;fill-opacity:1"
       d="m 62.435764,31.003216 c 0,3.358712 0,6.717425 0,10.076137 1.540983,1.540983 3.081964,3.081964 4.622947,4.622947 3.358712,0 6.717424,0 10.076137,0 3.220338,-3.220339 6.440676,-6.440677 9.661015,-9.661015 -3.220339,-3.220339 -6.440677,-6.440677 -9.661015,-9.661016 -3.358713,0 -6.717425,0 -10.076137,0 -1.540983,1.540983 -3.081964,3.081964 -4.622947,4.622947 z" />
    <path
       id="path5840"
       style="fill:#ecf0f1;stroke:#7f8c8d;stroke-width:1;stroke-linecap:butt;stroke-linejoin:miter;stroke-opacity:1;fill-opacity:1"
       d="m 81.550233,23.965016 c 3.220339,3.220338 6.440677,6.440676 9.661016,9.661015 3.194393,0 6.388787,0 9.583181,0 1.61017,-3.220339 3.22034,-6.440677 4.83051,-9.661015 -1.61017,-3.220339 -3.22034,-6.440677 -4.83051,-9.661016 -3.194394,0 -6.388788,0 -9.583181,0 -3.220339,3.220339 -6.440677,6.440677 -9.661016,9.661016 z" />
    <path
       id="path5842"
       style="fill:#ecf0f1;stroke:#7f8c8d;stroke-width:1;stroke-linecap:butt;stroke-linejoin:miter;stroke-opacity:1;fill-opacity:1"
       d="m 81.550233,48.117554 c 3.220339,3.220338 6.440677,6.440676 9.661016,9.661015 3.194393,0 6.388787,0 9.583181,0 1.61017,-3.220339 3.22034,-6.440677 4.83051,-9.661015 -1.61017,-3.220339 -3.22034,-6.440677 -4.83051,-9.661016 -3.194394,0 -6.388788,0 -9.583181,0 -3.220339,3.220339 -6.440677,6.440677 -9.661016,9.661016 z" />
    <path
       id="path5844"
       style="fill:#ecf0f1;stroke:#7f8c8d;stroke-width:1;stroke-linecap:butt;stroke-linejoin:miter;stroke-opacity:1;fill-opacity:1"
       d="m 62.435764,55.155754 c 0,3.358712 0,6.717425 0,10.076137 1.540983,1.540983 3.081964,3.081964 4.622947,4.622947 3.358712,0 6.717424,0 10.076137,0 3.220338,-3.220339 6.440676,-6.440677 9.661015,-9.661015 -3.220339,-3.220339 -6.440677,-6.440677 -9.661015,-9.661016 -3.358713,0 -6.717425,0 -10.076137,0 -1.540983,1.540983 -3.081964,3.081964 -4.622947,4.622947 z" />
    <path
       id="path5846"
       style="fill:#ecf0f1;stroke:#7f8c8d;stroke-width:1;stroke-linecap:butt;stroke-linejoin:miter;stroke-opacity:1;fill-opacity:1"
       d="m 33.245157,60.193823 c 3.220339,3.220338 6.440677,6.440676 9.661016,9.661015 3.358712,0 6.717424,0 10.076137,0 1.540982,-1.540983 3.081964,-3.081964 4.622946,-4.622947 0,-3.358712 0,-6.717425 0,-10.076137 -1.540982,-1.540983 -3.081964,-3.081964 -4.622946,-4.622947 -3.358713,0 -6.717425,0 -10.076137,0 -3.220339,3.220339 -6.440677,6.440677 -9.661016,9.661016 z" />
    <path
       id="path5848"
       style="fill:#ecf0f1;stroke:#7f8c8d;stroke-width:1;stroke-linecap:butt;stroke-linejoin:miter;stroke-opacity:1;fill-opacity:1"
       d="m 14.416084,48.117554 c 1.610169,3.220338 3.220339,6.440676 4.830508,9.661015 3.194392,0 6.388787,0 9.58318,0 3.220338,-3.220339 6.440676,-6.440677 9.661015,-9.661015 -3.220339,-3.220339 -6.440677,-6.440677 -9.661015,-9.661016 -3.194393,0 -6.388788,0 -9.58318,0 -1.610169,3.220339 -3.220339,6.440677 -4.830508,9.661016 z" />
    <path
       id="path5850"
       style="fill:#ecf0f1;stroke:#7f8c8d;stroke-width:1;stroke-linecap:butt;stroke-linejoin:miter;stroke-opacity:1;fill-opacity:1"
       d="m 14.416084,72.270092 c 1.610169,3.220338 3.220339,6.440676 4.830508,9.661015 3.194392,0 6.388787,0 9.58318,0 3.220338,-3.220339 6.440676,-6.440677 9.661015,-9.661015 -3.220339,-3.220339 -6.440677,-6.440677 -9.661015,-9.661016 -3.194393,0 -6.388788,0 -9.58318,0 -1.610169,3.220339 -3.220339,6.440677 -4.830508,9.661016 z" />
    <path
       id="path5852"
       style="fill:#ecf0f1;stroke:#7f8c8d;stroke-width:1;stroke-linecap:butt;stroke-linejoin:miter;stroke-opacity:1;fill-opacity:1"
       d="m 81.550233,72.270092 c 3.220339,3.220338 6.440677,6.440676 9.661016,9.661015 3.194393,0 6.388787,0 9.583181,0 1.61017,-3.220339 3.22034,-6.440677 4.83051,-9.661015 -1.61017,-3.220339 -3.22034,-6.440677 -4.83051,-9.661016 -3.194394,0 -6.388788,0 -9.583181,0 -3.220339,3.220339 -6.440677,6.440677 -9.661016,9.661016 z" />
    <path
       id="path5854"
       style="fill:#ecf0f1;stroke:#7f8c8d;stroke-width:1;stroke-linecap:butt;stroke-linejoin:miter;stroke-opacity:1;fill-opacity:1"
       d="m 33.245157,84.346361 c 3.220339,3.220338 6.440677,6.440676 9.661016,9.661015 3.358712,0 6.717424,0 10.076137,0 1.540982,-1.540983 3.081964,-3.081964 4.622946,-4.622947 0,-3.358712 0,-6.717425 0,-10.076137 -1.540982,-1.540983 -3.081964,-3.081964 -4.622946,-4.622947 -3.358713,0 -6.717425,0 -10.076137,0 -3.220339,3.220339 -6.440677,6.440677 -9.661016,9.661016 z" />
    <path
       id="path5856"
       style="fill:#ecf0f1;stroke:#7f8c8d;stroke-width:1;stroke-linecap:butt;stroke-linejoin:miter;stroke-opacity:1;fill-opacity:1"
       d="m 62.435764,79.308292 c 0,3.358712 0,6.717425 0,10.076137 1.540983,1.540983 3.081964,3.081964 4.622947,4.622947 3.358712,0 6.717424,0 10.076137,0 3.220338,-3.220339 6.440676,-6.440677 9.661015,-9.661015 -3.220339,-3.220339 -6.440677,-6.440677 -9.661015,-9.661016 -3.358713,0 -6.717425,0 -10.076137,0 -1.540983,1.540983 -3.081964,3.081964 -4.622947,4.622947 z" />
    <path
       id="path5858"
       style="fill:#ecf0f1;stroke:#7f8c8d;stroke-width:1;stroke-linecap:butt;stroke-linejoin:miter;stroke-opacity:1;fill-opacity:1"
       d="m 81.550233,96.42263 c 3.220339,3.220338 6.440677,6.44068 9.661016,9.66102 3.194393,0 6.388787,0 9.583181,0 1.61017,-3.22034 3.22034,-6.440682 4.83051,-9.66102 -1.61017,-3.220339 -3.22034,-6.440677 -4.83051,-9.661016 -3.194394,0 -6.388788,0 -9.583181,0 -3.220339,3.220339 -6.440677,6.440677 -9.661016,9.661016 z" />
    <path
       id="path5860"
       style="fill:#ecf0f1;stroke:#7f8c8d;stroke-width:1;stroke-linecap:butt;stroke-linejoin:miter;stroke-opacity:1;fill-opacity:1"
       d="m 14.416084,96.42263 c 1.610169,3.220338 3.220339,6.44068 4.830508,9.66102 3.194392,0 6.388787,0 9.58318,0 3.220338,-3.22034 6.440676,-6.440682 9.661015,-9.66102 -3.220339,-3.220339 -6.440677,-6.440677 -9.661015,-9.661016 -3.194393,0 -6.388788,0 -9.58318,0 -1.610169,3.220339 -3.220339,6.440677 -4.830508,9.661016 z" />
  </g>
</svg>
