<?xml version="1.0" encoding="UTF-8" standalone="no"?>
<!-- Created with Inkscape (http://www.inkscape.org/) -->

<svg
   width="120"
   height="120"
   viewBox="0 0 120 120"
   version="1.1"
   id="svg5"
   inkscape:version="1.1.2 (0a00cf5339, 2022-02-04)"
   sodipodi:docname="pcrd.trilobite.svg"
   inkscape:export-filename="./pcrd.trilobite.png"
   inkscape:export-xdpi="153.60001"
   inkscape:export-ydpi="153.60001"
   xmlns:inkscape="http://www.inkscape.org/namespaces/inkscape"
   xmlns:sodipodi="http://sodipodi.sourceforge.net/DTD/sodipodi-0.dtd"
   xmlns="http://www.w3.org/2000/svg"
   xmlns:svg="http://www.w3.org/2000/svg">
  <sodipodi:namedview
     id="namedview7"
     pagecolor="#000000"
     bordercolor="#666666"
     borderopacity="1.0"
     inkscape:showpageshadow="2"
     inkscape:pageopacity="0"
     inkscape:pagecheckerboard="0"
     inkscape:deskcolor="#d1d1d1"
     inkscape:document-units="px"
     showgrid="true"
     inkscape:zoom="6.725"
     inkscape:cx="59.925651"
     inkscape:cy="60"
     inkscape:window-width="1850"
     inkscape:window-height="1016"
     inkscape:window-x="70"
     inkscape:window-y="27"
     inkscape:window-maximized="1"
     inkscape:current-layer="layer1"
     inkscape:pageshadow="0" />
  <defs
     id="defs2" />
  <g
     inkscape:label="Слой 1"
     inkscape:groupmode="layer"
     id="layer1">
    <path
       id="path392"
       style="fill:#27ae60;stroke:none;stroke-width:2;stroke-linecap:butt;stroke-linejoin:miter;stroke-opacity:1;fill-opacity:1"
       d="m 31.420191,33.530698 c 3.463884,3.463885 6.927768,6.927768 10.391652,10.391653 12.272435,0 24.544867,0 36.817302,0 3.463884,-3.463885 6.927768,-6.927768 10.391652,-10.391653 -3.463884,-3.463885 -6.927768,-6.927768 -10.391652,-10.391653 -12.272435,0 -24.544867,0 -36.817302,0 -3.463884,3.463885 -6.927768,6.927768 -10.391652,10.391653 z" />
    <path
       id="path492"
       style="fill:#27ae60;stroke:none;stroke-width:2;stroke-linecap:butt;stroke-linejoin:miter;stroke-opacity:1;fill-opacity:1"
       d="m 31.420191,59.50983 c 3.463884,3.463885 6.927768,6.927768 10.391652,10.391653 12.272435,0 24.544867,0 36.817302,0 3.463884,-3.463885 6.927768,-6.927768 10.391652,-10.391653 -3.463884,-3.463885 -6.927768,-6.927768 -10.391652,-10.391653 -12.272435,0 -24.544867,0 -36.817302,0 -3.463884,3.463885 -6.927768,6.927768 -10.391652,10.391653 z" />
    <path
       id="path494"
       style="fill:#27ae60;stroke:none;stroke-width:2;stroke-linecap:butt;stroke-linejoin:miter;stroke-opacity:1;fill-opacity:1"
       d="m 31.420191,85.488962 c 3.463884,3.463885 6.927768,6.927768 10.391652,10.391653 12.272435,0 24.544867,0 36.817302,0 3.463884,-3.463885 6.927768,-6.927768 10.391652,-10.391653 -3.463884,-3.463885 -6.927768,-6.927768 -10.391652,-10.391653 -12.272435,0 -24.544867,0 -36.817302,0 -3.463884,3.463885 -6.927768,6.927768 -10.391652,10.391653 z" />
    <path
       id="path496"
       style="fill:#27ae60;stroke:none;stroke-width:2;stroke-linecap:butt;stroke-linejoin:miter;stroke-opacity:1;fill-opacity:1"
       d="m 83.378455,46.520264 c 3.463884,3.463885 6.927768,6.927768 10.391652,10.391653 3.435977,0 6.871953,0 10.307933,0 1.73194,-3.463885 3.46388,-6.927768 5.19582,-10.391653 -1.73194,-3.463885 -3.46388,-6.927768 -5.19582,-10.391653 -3.43598,0 -6.871956,0 -10.307933,0 -3.463884,3.463885 -6.927768,6.927768 -10.391652,10.391653 z" />
    <path
       id="path498"
       style="fill:#27ae60;stroke:none;stroke-width:2;stroke-linecap:butt;stroke-linejoin:miter;stroke-opacity:1;fill-opacity:1"
       d="m 83.378455,72.499396 c 3.463884,3.463885 6.927768,6.927768 10.391652,10.391653 3.435977,0 6.871953,0 10.307933,0 1.73194,-3.463885 3.46388,-6.927768 5.19582,-10.391653 -1.73194,-3.463885 -3.46388,-6.927768 -5.19582,-10.391653 -3.43598,0 -6.871956,0 -10.307933,0 -3.463884,3.463885 -6.927768,6.927768 -10.391652,10.391653 z" />
    <path
       id="path500"
       style="fill:#27ae60;stroke:none;stroke-width:2;stroke-linecap:butt;stroke-linejoin:miter;stroke-opacity:1;fill-opacity:1"
       d="m 83.378455,98.478528 c 3.463884,3.463882 6.927768,6.927772 10.391652,10.391652 3.435977,0 6.871953,0 10.307933,0 1.73194,-3.46388 3.46388,-6.92777 5.19582,-10.391652 -1.73194,-3.463885 -3.46388,-6.927768 -5.19582,-10.391653 -3.43598,0 -6.871956,0 -10.307933,0 -3.463884,3.463885 -6.927768,6.927768 -10.391652,10.391653 z" />
    <path
       id="path502"
       style="fill:#27ae60;stroke:none;stroke-width:2;stroke-linecap:butt;stroke-linejoin:miter;stroke-opacity:1;fill-opacity:1"
       d="m 83.378455,20.541132 c 3.463884,3.463885 6.927768,6.927768 10.391652,10.391653 3.435977,0 6.871953,0 10.307933,0 1.73194,-3.463885 3.46388,-6.927768 5.19582,-10.391653 -1.73194,-3.463885 -3.46388,-6.927768 -5.19582,-10.391653 -3.43598,0 -6.871956,0 -10.307933,0 -3.463884,3.463885 -6.927768,6.927768 -10.391652,10.391653 z" />
    <path
       id="path504"
       style="fill:#27ae60;stroke:none;stroke-width:2;stroke-linecap:butt;stroke-linejoin:miter;stroke-opacity:1;fill-opacity:1"
       d="m 11.167123,20.541132 c 1.731942,3.463885 3.463885,6.927768 5.195826,10.391653 3.435977,0 6.871955,0 10.307932,0 3.463884,-3.463885 6.927768,-6.927768 10.391652,-10.391653 -3.463884,-3.463885 -6.927768,-6.927768 -10.391652,-10.391653 -3.435977,0 -6.871955,0 -10.307932,0 -1.731941,3.463885 -3.463884,6.927768 -5.195826,10.391653 z" />
    <path
       id="path506"
       style="fill:#27ae60;stroke:none;stroke-width:2;stroke-linecap:butt;stroke-linejoin:miter;stroke-opacity:1;fill-opacity:1"
       d="m 11.167123,46.520264 c 1.731942,3.463885 3.463885,6.927768 5.195826,10.391653 3.435977,0 6.871955,0 10.307932,0 3.463884,-3.463885 6.927768,-6.927768 10.391652,-10.391653 -3.463884,-3.463885 -6.927768,-6.927768 -10.391652,-10.391653 -3.435977,0 -6.871955,0 -10.307932,0 -1.731941,3.463885 -3.463884,6.927768 -5.195826,10.391653 z" />
    <path
       id="path508"
       style="fill:#27ae60;stroke:none;stroke-width:2;stroke-linecap:butt;stroke-linejoin:miter;stroke-opacity:1;fill-opacity:1"
       d="m 11.167123,72.499396 c 1.731942,3.463885 3.463885,6.927768 5.195826,10.391653 3.435977,0 6.871955,0 10.307932,0 3.463884,-3.463885 6.927768,-6.927768 10.391652,-10.391653 -3.463884,-3.463885 -6.927768,-6.927768 -10.391652,-10.391653 -3.435977,0 -6.871955,0 -10.307932,0 -1.731941,3.463885 -3.463884,6.927768 -5.195826,10.391653 z" />
    <path
       id="path510"
       style="fill:#27ae60;stroke:none;stroke-width:2;stroke-linecap:butt;stroke-linejoin:miter;stroke-opacity:1;fill-opacity:1"
       d="m 11.167123,98.478528 c 1.731942,3.463882 3.463885,6.927772 5.195826,10.391652 3.435977,0 6.871955,0 10.307932,0 3.463884,-3.46388 6.927768,-6.92777 10.391652,-10.391652 -3.463884,-3.463885 -6.927768,-6.927768 -10.391652,-10.391653 -3.435977,0 -6.871955,0 -10.307932,0 -1.731941,3.463885 -3.463884,6.927768 -5.195826,10.391653 z" />
  </g>
</svg>
